<svg width="820" height="490" viewBox="0 0 820 490" fill="none" xmlns="http://www.w3.org/2000/svg">
<g opacity="0.7">
<mask id="mask0" mask-type="alpha" maskUnits="userSpaceOnUse" x="0" y="0" width="820" height="490">
<rect width="820" height="490" fill="#15195F"/>
</mask>
<g mask="url(#mask0)">
<path d="M-0.275922 20C-0.275922 20 31.6091 5.73541 49.5363 3.01911C152.449 -12.5237 240.098 88.8779 341.003 113.864C441.964 138.891 567.199 90.2131 650.753 152.011C734.307 213.809 724.376 347.766 777.868 436.975C789.252 455.97 804.544 474.375 820.5 491" stroke="#15195F" stroke-width="2"/>
<path d="M-1.99998 122C17.1316 108.394 39.3612 97.5013 62.9658 93.9118C154.208 80.0869 231.907 170.007 321.428 192.187C410.851 214.382 521.901 171.176 596.02 225.996C670.084 280.774 661.287 399.608 708.748 478.654C711.029 482.461 715.952 489.329 718.5 493" stroke="#15195F" stroke-width="7"/>
<path d="M629 491C602.09 424.003 600.413 338.524 543.791 296.646C478.71 248.512 381.269 286.433 302.667 266.979C224.163 247.51 155.933 168.539 75.8126 180.679C46.666 185.095 20.7854 202.074 -1.49991 222" stroke="#15195F" stroke-width="2"/>
<path d="M546 490.5C533.95 445.111 523.71 398.365 488.049 371.99C432.629 331 349.598 363.265 282.704 346.769C215.795 330.175 157.698 262.909 89.4876 273.244C53.2073 278.768 24.4091 304.867 -1.99993 333" stroke="#15195F" stroke-width="2"/>
<path d="M-2.00001 353C25.163 323.728 54.4605 295.004 91.8744 289.307C158.018 279.285 214.402 344.495 279.268 360.543C344.147 376.689 424.651 345.361 478.376 385.097C510.454 408.823 521.286 450.158 532 491" stroke="#15195F" stroke-width="2"/>
<path d="M-1.49998 424C29.398 391.931 58.6793 353.793 100.423 347.468C159.184 338.565 209.144 396.391 266.754 410.669C324.265 424.962 395.681 397.175 443.362 432.441C462.353 446.487 473.279 468.085 481 491" stroke="#15195F" stroke-width="3"/>
<path d="M47 490.5C66.7495 469.142 87.4367 447.805 114.649 443.682C157.027 437.261 194.774 475.375 235.5 490.5" stroke="#15195F"/>
</g>
</g>
</svg>
