<svg width="939" height="374" viewBox="0 0 939 374" fill="none" xmlns="http://www.w3.org/2000/svg">
<g opacity="0.7">
<mask id="mask0" mask-type="alpha" maskUnits="userSpaceOnUse" x="0" y="0" width="939" height="374">
<rect width="939" height="374" fill="#15195F"/>
</mask>
<g mask="url(#mask0)">
<g opacity="0.8">
<path d="M1065.16 -1081.71C1106.64 -1051.03 1124.98 -1002.4 1139.62 -950.045C1142.52 -939.686 1145.27 -929.178 1148.03 -918.64C1159.2 -876.032 1170.49 -832.921 1192.01 -797.039C1213.5 -761.175 1246.16 -730.949 1278.44 -701.07C1286.43 -693.68 1294.39 -686.311 1302.15 -678.883C1341.39 -641.345 1375.63 -602.283 1383.21 -551.17C1390.77 -500.028 1369.34 -452.518 1342.68 -404.983C1337.4 -395.559 1331.91 -386.133 1326.4 -376.68C1304.18 -338.549 1281.7 -299.972 1271.51 -259.306L1272.48 -259.063L1271.51 -259.306C1261.34 -218.663 1263 -174.121 1264.65 -130.089C1265.05 -119.172 1265.46 -108.287 1265.68 -97.4996C1266.82 -43.0902 1263.34 8.86248 1232.55 50.4954C1201.76 92.1283 1153.1 110.665 1100.74 125.513C1090.36 128.457 1079.83 131.255 1069.28 134.062C1026.69 145.382 983.616 156.833 947.733 178.461L948.249 179.318L947.733 178.461C911.833 200.112 881.528 232.9 851.574 265.31C844.147 273.345 836.743 281.356 829.28 289.169C791.634 328.578 752.479 362.976 701.364 370.721C650.272 378.437 602.897 357.139 555.516 330.613C546.141 325.364 536.763 319.909 527.359 314.438C489.338 292.32 450.874 269.944 410.288 259.894C369.68 249.828 325.15 251.649 281.141 253.45C270.256 253.895 259.403 254.339 248.649 254.601C194.298 255.928 142.429 252.635 100.948 221.955C59.4677 191.276 41.1176 142.633 26.458 90.2659C23.5558 79.8991 20.7984 69.3841 18.033 58.8386C6.85877 16.228 -4.44681 -26.8837 -25.9597 -62.7606C-47.4524 -98.6247 -80.1098 -128.851 -112.391 -158.73C-120.376 -166.12 -128.338 -173.489 -136.102 -180.917C-175.339 -218.455 -209.575 -257.517 -217.157 -308.63C-224.718 -359.772 -203.292 -407.282 -176.633 -454.817C-171.348 -464.241 -165.855 -473.666 -160.347 -483.12C-138.129 -521.251 -115.651 -559.828 -105.461 -600.494C-95.2583 -641.145 -96.9255 -685.712 -98.5736 -729.772C-98.981 -740.663 -99.3873 -751.523 -99.6128 -762.285C-100.753 -816.7 -97.2895 -868.662 -66.4974 -910.295C-35.7052 -951.928 12.9661 -970.455 65.33 -985.297C75.6863 -988.233 86.1891 -991.024 96.7219 -993.823C139.333 -1005.15 182.436 -1016.6 218.318 -1038.26C254.218 -1059.91 284.523 -1092.7 314.477 -1125.11C321.903 -1133.14 329.308 -1141.16 336.771 -1148.97C374.417 -1188.38 413.571 -1222.78 464.686 -1230.52C515.779 -1238.24 563.153 -1216.94 610.534 -1190.41C619.91 -1185.16 629.287 -1179.71 638.691 -1174.24C676.713 -1152.12 715.176 -1129.74 755.762 -1119.69C796.365 -1109.63 840.898 -1111.44 884.913 -1113.23C895.806 -1113.68 906.667 -1114.12 917.43 -1114.38C971.794 -1115.7 1023.68 -1112.39 1065.16 -1081.71Z" stroke="#15195F" stroke-width="2"/>
<path d="M1073.99 -890.361C1061.01 -936.769 1044.93 -979.097 1008.94 -1005.72C972.917 -1032.36 927.722 -1035.35 879.548 -1034.17C870.113 -1033.94 860.556 -1033.55 850.945 -1033.16C811.897 -1031.56 771.949 -1029.92 735.586 -1038.94C699.183 -1047.96 664.654 -1068.06 630.915 -1087.69C622.612 -1092.52 614.356 -1097.32 606.133 -1101.93C564.142 -1125.43 522.838 -1143.87 478.492 -1137.16C434.118 -1130.41 399.94 -1100.51 366.586 -1065.59C360.057 -1058.75 353.555 -1051.71 347.017 -1044.64C320.435 -1015.87 293.241 -986.434 261.059 -967.043C228.864 -947.632 190.182 -937.348 152.382 -927.298C143.077 -924.824 133.826 -922.365 124.738 -919.786C78.345 -906.626 36.0094 -890.378 9.28405 -854.244C-17.4413 -818.11 -20.5807 -772.872 -19.5805 -724.659C-19.3846 -715.215 -19.0276 -705.649 -18.6686 -696.028C-17.2101 -656.942 -15.7175 -616.944 -24.8508 -580.477C-33.9687 -544.027 -54.1489 -509.407 -73.8751 -475.566C-78.7273 -467.242 -83.552 -458.965 -88.1778 -450.72C-111.807 -408.601 -130.384 -367.168 -123.844 -322.763C-117.283 -278.393 -87.5569 -244.299 -52.7847 -211.032C-45.9744 -204.516 -38.9637 -198.029 -31.9125 -191.504C-3.26209 -164.992 26.0592 -137.86 45.3419 -105.693C64.6183 -73.5667 74.7495 -34.89 84.6525 2.91499C87.09 12.2204 89.5137 21.473 92.0566 30.5622C105.04 76.9687 121.127 119.309 157.149 145.951C193.143 172.572 238.323 175.547 286.498 174.374C295.908 174.144 305.439 173.754 315.025 173.362C354.103 171.764 394.094 170.129 430.504 179.177C466.887 188.18 501.404 208.264 535.137 227.891C543.435 232.72 551.687 237.521 559.906 242.122C601.89 265.625 643.195 284.066 687.542 277.347C731.914 270.598 766.092 240.704 799.445 205.778C805.975 198.941 812.477 191.904 819.015 184.827C845.597 156.057 872.791 126.625 904.973 107.234C904.973 107.233 904.974 107.233 904.974 107.233L906.78 110.231C938.504 91.1039 976.559 80.9811 1014.31 70.9378C1070.8 55.913 1126.61 41.0662 1159.56 -3.48394C1192.51 -48.0341 1190.37 -105.749 1188.19 -164.156C1186.74 -203.198 1185.28 -242.549 1194.28 -278.483L1073.99 -890.361ZM1073.99 -890.361C1076.53 -881.296 1078.94 -872.069 1081.38 -862.788M1073.99 -890.361L1081.38 -862.788M1081.38 -862.788C1091.29 -824.955 1101.43 -786.238 1120.75 -754.072L1081.38 -862.788Z" stroke="#15195F" stroke-width="7"/>
<path d="M1056.84 -715.541L1056.85 -715.54C1073.61 -687.614 1099.05 -664.079 1124.16 -640.844C1130.4 -635.08 1136.61 -629.334 1142.66 -623.545C1173.2 -594.337 1199.78 -563.983 1205.65 -524.265C1211.53 -484.547 1194.88 -447.627 1174.12 -410.627C1170.02 -403.315 1165.75 -395.999 1161.47 -388.659C1144.17 -358.958 1126.63 -328.875 1118.7 -297.165C1110.79 -265.505 1112.09 -230.803 1113.37 -196.535C1113.69 -188.029 1114.01 -179.55 1114.18 -171.15C1115.07 -128.798 1112.36 -88.4274 1088.44 -56.0928C1064.53 -23.7583 1026.72 -9.34455 985.966 2.20978C977.883 4.50135 969.682 6.68038 961.455 8.86625C928.313 17.6723 894.752 26.5899 866.796 43.4233C838.798 60.2946 815.167 85.8665 791.836 111.114C786.07 117.353 780.323 123.572 774.533 129.635C745.232 160.317 714.806 187.049 675.109 193.063C635.413 199.078 598.605 182.547 561.735 161.898C554.427 157.805 547.114 153.549 539.778 149.279C510.207 132.066 480.256 114.632 448.646 106.781L448.404 107.752L448.645 106.781C417.002 98.9495 382.303 100.374 348.049 101.779C339.572 102.127 331.124 102.474 322.755 102.679C280.45 103.716 240.148 101.15 207.932 77.3228C175.688 53.4748 161.42 15.6792 150.017 -25.0799C147.759 -33.153 145.613 -41.3443 143.46 -49.5618C134.773 -82.7195 125.975 -116.302 109.227 -144.257C92.4856 -172.169 67.0463 -195.703 41.9241 -218.942C35.6952 -224.704 29.4858 -230.448 23.4334 -236.237C-7.11329 -265.45 -33.7109 -295.815 -39.583 -335.532C-45.4552 -375.25 -28.804 -412.17 -8.0461 -449.17C-3.94396 -456.482 0.31999 -463.799 4.59754 -471.139C21.9066 -500.839 39.4384 -530.922 47.3724 -562.632C55.3099 -594.293 54.0173 -629.007 52.7409 -663.288C52.4249 -671.773 52.11 -680.231 51.9362 -688.61C51.058 -730.957 53.7698 -771.328 77.6849 -803.663C101.6 -835.997 139.408 -850.411 180.156 -861.971C188.218 -864.258 196.398 -866.433 204.604 -868.616C237.756 -877.433 271.327 -886.361 299.276 -903.221C327.274 -920.092 350.905 -945.664 374.235 -970.911C380.001 -977.15 385.748 -983.369 391.539 -989.432C420.84 -1020.11 451.265 -1046.85 490.963 -1052.86C530.658 -1058.88 567.48 -1042.33 604.357 -1021.68C611.664 -1017.59 618.974 -1013.33 626.307 -1009.06C655.885 -991.847 685.835 -974.413 717.426 -966.579L717.427 -966.578C749.06 -958.749 783.747 -960.17 817.994 -961.573C826.482 -961.92 834.943 -962.267 843.324 -962.471C885.635 -963.503 925.952 -960.926 958.196 -937.078C990.412 -913.251 1004.67 -875.466 1016.06 -834.712C1018.32 -826.65 1020.46 -818.47 1022.61 -810.263C1031.29 -777.099 1040.09 -743.503 1056.84 -715.541Z" stroke="#15195F" stroke-width="2"/>
<path d="M986.432 -673.063L986.432 -673.063C1000.7 -649.259 1022.39 -629.192 1043.79 -609.394C1049.09 -604.499 1054.36 -599.62 1059.5 -594.705C1085.51 -569.832 1108.13 -544.012 1113.12 -510.253C1118.09 -476.464 1103.95 -445.059 1086.28 -413.555C1082.79 -407.321 1079.15 -401.081 1075.5 -394.82C1060.78 -369.545 1045.85 -343.928 1039.09 -316.927C1032.31 -289.912 1033.41 -260.299 1034.5 -231.087C1034.77 -223.871 1035.04 -216.679 1035.19 -209.557C1035.93 -173.49 1033.62 -139.158 1013.3 -111.671C992.965 -84.184 960.815 -71.9238 926.109 -62.0789C919.255 -60.1349 912.3 -58.2851 905.322 -56.4289C877.072 -48.9152 848.434 -41.2984 824.586 -26.9118C800.751 -12.5335 780.626 9.23746 760.77 30.7169C755.852 36.0376 750.95 41.3405 746.012 46.5087C721.061 72.6233 695.174 95.345 661.41 100.486C627.67 105.598 596.359 91.532 564.96 73.9431C558.756 70.4675 552.546 66.8527 546.316 63.2259C521.118 48.5574 495.579 33.6901 468.642 27.0203L468.641 27.0202C441.678 20.3599 412.103 21.5724 382.931 22.7686C375.7 23.0651 368.494 23.3605 361.359 23.5348C325.321 24.4151 291.036 22.221 263.65 1.96644C236.237 -18.3091 224.086 -50.4599 214.376 -85.1761C212.446 -92.0748 210.613 -99.0769 208.774 -106.102C201.387 -134.318 193.901 -162.911 179.673 -186.704L179.672 -186.705C165.386 -210.524 143.682 -230.598 122.273 -250.401C116.976 -255.3 111.698 -260.182 106.554 -265.1C80.5359 -289.977 57.9187 -315.797 52.9273 -349.556C47.9566 -383.346 62.1028 -414.751 79.7674 -446.254C83.2633 -452.489 86.8985 -458.729 90.546 -464.99C105.27 -490.265 120.194 -515.882 126.963 -542.882C133.737 -569.898 132.634 -599.51 131.547 -628.722C131.279 -635.939 131.011 -643.13 130.863 -650.253C130.115 -686.32 132.424 -720.652 152.753 -748.139C173.083 -775.626 205.234 -787.886 239.94 -797.731C246.793 -799.675 253.748 -801.525 260.727 -803.381C288.977 -810.894 317.614 -818.511 341.463 -832.898C365.297 -847.276 385.422 -869.047 405.278 -890.526C410.197 -895.847 415.099 -901.15 420.037 -906.318C444.987 -932.433 470.874 -955.154 504.637 -960.295C538.378 -965.408 569.689 -951.342 601.095 -933.748C607.303 -930.27 613.517 -926.652 619.752 -923.022C644.955 -908.349 670.505 -893.474 697.463 -886.788L697.464 -886.788C724.38 -880.15 753.912 -881.365 783.054 -882.563C790.31 -882.862 797.542 -883.159 804.703 -883.334C840.741 -884.214 875.041 -882.01 902.455 -861.734C929.84 -841.48 941.977 -809.34 951.687 -774.623C953.61 -767.749 955.437 -760.773 957.271 -753.772C964.669 -725.528 972.169 -696.895 986.432 -673.063Z" stroke="#15195F" stroke-width="2"/>
<path d="M817.307 -39.1378L817.823 -38.2812L817.306 -39.1376C794.171 -25.1866 774.651 -4.05294 755.397 16.7919C750.63 21.9522 745.88 27.0949 741.096 32.1064C716.905 57.4452 691.81 79.4801 659.052 84.4436C626.344 89.3993 595.992 75.7794 565.541 58.7266C559.502 55.345 553.458 51.827 547.393 48.2966C522.975 34.0828 498.215 19.6705 472.092 13.1693L472.09 13.169C445.956 6.70323 417.272 7.87833 388.978 9.03742C381.973 9.32438 374.992 9.61038 368.08 9.7792C333.132 10.6327 299.889 8.50732 273.351 -11.1204C246.785 -30.7691 235.019 -61.9333 225.602 -95.5995C223.742 -102.248 221.974 -108.996 220.2 -115.768C213.021 -143.172 205.741 -170.959 191.878 -194.08L191.878 -194.08C178.033 -217.141 157.004 -236.595 136.258 -255.786C131.108 -260.55 125.976 -265.297 120.976 -270.079C95.7474 -294.208 73.8234 -319.252 68.9849 -351.977C64.1671 -384.732 77.8887 -415.179 95.0268 -445.735C98.4125 -451.771 101.933 -457.813 105.465 -463.875C119.756 -488.401 134.245 -513.268 140.812 -539.481L139.842 -539.724L140.813 -539.482C147.358 -565.653 146.289 -594.335 145.234 -622.627C144.973 -629.647 144.712 -636.642 144.568 -643.57C143.845 -678.533 146.096 -711.811 165.817 -738.476C185.539 -765.142 216.7 -777.038 250.348 -786.59C257 -788.479 263.752 -790.275 270.526 -792.078C297.909 -799.366 325.674 -806.756 348.812 -820.708C371.939 -834.642 391.465 -855.766 410.727 -876.605C415.486 -881.754 420.229 -886.886 425.007 -891.887C449.199 -917.213 474.294 -939.248 507.024 -944.233C539.732 -949.189 570.098 -935.558 600.562 -918.507C606.578 -915.14 612.6 -911.637 618.642 -908.123C643.094 -893.901 667.883 -879.483 694.028 -873.015C720.196 -866.503 748.908 -867.67 777.225 -868.822C784.199 -869.105 791.148 -869.388 798.029 -869.555C832.972 -870.401 866.215 -868.276 892.782 -848.627C919.32 -828.999 931.086 -797.835 940.508 -764.176C942.366 -757.537 944.133 -750.8 945.906 -744.039C953.093 -716.636 960.379 -688.855 974.24 -665.766C988.101 -642.648 1009.15 -623.166 1029.9 -603.954C1035.03 -599.204 1040.14 -594.47 1045.13 -589.702C1070.34 -565.571 1092.25 -540.537 1097.09 -507.812C1101.94 -475.036 1088.22 -444.589 1071.08 -414.046C1067.69 -408.008 1064.16 -401.964 1060.63 -395.9C1046.34 -371.392 1031.85 -346.55 1025.31 -320.364C1018.74 -294.149 1019.81 -265.423 1020.87 -237.092C1021.14 -230.091 1021.4 -223.114 1021.54 -216.205C1022.27 -181.224 1020.04 -147.936 1000.32 -121.271C980.594 -94.6062 949.419 -82.7204 915.762 -73.1854C909.1 -71.2981 902.338 -69.5028 895.554 -67.7015C868.175 -60.4323 840.421 -53.0633 817.307 -39.1378Z" stroke="#15195F" stroke-width="2"/>
<path d="M857.47 -800.882C880.837 -783.599 891.225 -756.148 899.58 -726.296C901.216 -720.45 902.775 -714.508 904.34 -708.54C910.723 -684.204 917.223 -659.422 929.605 -638.822C941.929 -618.247 960.666 -600.9 979.074 -583.858C983.622 -579.647 988.15 -575.455 992.556 -571.238C1014.92 -549.832 1034.22 -527.732 1038.48 -498.881C1042.74 -470.079 1030.67 -443.236 1015.46 -416.136C1012.47 -410.81 1009.36 -405.472 1006.23 -400.11C993.545 -378.341 980.627 -356.179 974.791 -332.84C968.961 -309.523 969.922 -283.956 970.867 -258.838C971.101 -252.62 971.334 -246.431 971.462 -240.309C972.114 -209.286 970.111 -179.94 952.742 -156.456C935.372 -132.972 907.899 -122.464 878.045 -114.003C872.154 -112.334 866.167 -110.744 860.154 -109.147C835.86 -102.696 811.132 -96.1292 790.544 -83.7272C769.937 -71.313 752.529 -52.4722 735.429 -33.965C731.217 -29.4067 727.024 -24.8687 722.807 -20.4519C701.347 2.02298 679.216 21.4288 650.429 25.7905C621.594 30.1595 594.812 18.1782 567.796 3.06239C562.473 0.0841682 557.139 -3.01803 551.781 -6.13409C530.097 -18.7448 508.023 -31.5817 484.742 -37.3409C461.419 -43.1484 435.82 -42.1073 410.681 -41.0849C404.517 -40.8342 398.379 -40.5846 392.31 -40.4374C361.32 -39.6859 332.031 -41.5802 308.663 -58.8629C285.268 -76.1667 274.866 -103.629 266.511 -133.48C264.868 -139.351 263.304 -145.317 261.733 -151.31C255.361 -175.618 248.875 -200.36 236.529 -220.922C224.184 -241.511 205.436 -258.867 187.022 -275.914C182.469 -280.128 177.938 -284.323 173.528 -288.543C151.157 -309.955 131.859 -332.054 127.594 -360.905C123.336 -389.707 135.411 -416.55 150.617 -443.651C153.606 -448.977 156.717 -454.315 159.842 -459.676C172.532 -481.446 185.449 -503.607 191.286 -526.947C197.116 -550.263 196.155 -575.83 195.21 -600.949C194.976 -607.166 194.743 -613.356 194.615 -619.477C193.963 -650.501 195.966 -679.846 213.335 -703.33C230.705 -726.815 258.178 -737.322 288.032 -745.783C293.923 -747.452 299.909 -749.042 305.923 -750.639C330.217 -757.09 354.945 -763.657 375.532 -776.059C396.14 -788.474 413.548 -807.314 430.648 -825.822C434.86 -830.38 439.053 -834.918 443.27 -839.335C464.73 -861.809 486.861 -881.215 515.648 -885.577C544.483 -889.946 571.265 -877.965 598.288 -862.844C603.614 -859.863 608.953 -856.758 614.315 -853.639C636.006 -841.024 658.09 -828.179 681.392 -822.404C704.667 -816.619 730.224 -817.662 755.333 -818.687C761.523 -818.939 767.686 -819.191 773.781 -819.339C804.77 -820.09 834.074 -818.185 857.47 -800.882Z" stroke="#15195F" stroke-width="3"/>
<path d="M308.893 -264.579L308.464 -264.322L308.893 -264.579C299.195 -280.749 284.475 -294.372 269.934 -307.829C266.334 -311.161 262.745 -314.483 259.246 -317.831C241.573 -334.739 226.17 -352.321 222.769 -375.331C219.367 -398.342 229.009 -419.719 241.013 -441.118C243.388 -445.353 245.857 -449.589 248.333 -453.837C258.339 -471.008 268.466 -488.385 273.046 -506.7C277.651 -525.009 276.903 -545.091 276.164 -564.938C275.982 -569.835 275.8 -574.718 275.699 -579.557C275.189 -604.061 276.751 -627.449 290.606 -646.182C304.461 -664.915 326.367 -673.256 349.946 -679.943C354.602 -681.264 359.325 -682.52 364.061 -683.779C383.254 -688.884 402.675 -694.049 418.833 -703.813C435.004 -713.555 448.655 -728.326 462.143 -742.921C465.481 -746.533 468.808 -750.133 472.161 -753.644C489.108 -771.388 506.725 -786.867 529.723 -790.352C552.721 -793.836 574.043 -784.257 595.384 -772.309C599.61 -769.944 603.837 -767.485 608.077 -765.018C625.201 -755.055 642.538 -744.969 660.839 -740.431L660.839 -740.431C679.105 -735.912 699.143 -736.726 718.944 -737.53C723.863 -737.73 728.767 -737.929 733.626 -738.046C758.101 -738.634 781.448 -737.136 800.112 -723.332C818.777 -709.528 827.03 -687.653 833.628 -664.084C834.932 -659.425 836.171 -654.699 837.414 -649.958C842.445 -630.772 847.539 -611.346 857.241 -595.169C866.918 -579.013 881.627 -565.398 896.161 -551.946C899.757 -548.617 903.343 -545.299 906.838 -541.954C924.505 -525.051 939.907 -507.469 943.309 -484.459C946.711 -461.448 937.068 -440.07 925.064 -418.672C922.689 -414.437 920.221 -410.201 917.745 -405.953C907.738 -388.782 897.611 -371.404 893.031 -353.089C888.455 -334.788 889.199 -314.733 889.935 -294.914C890.117 -289.99 890.299 -285.081 890.399 -280.217C890.902 -255.719 889.327 -232.341 875.472 -213.608C861.616 -194.875 839.724 -186.523 816.152 -179.831C811.472 -178.502 806.725 -177.239 801.964 -175.972C782.798 -170.872 763.404 -165.711 747.245 -155.977C731.073 -146.235 717.423 -131.464 703.934 -116.868C700.597 -113.257 697.269 -109.656 693.916 -106.145C676.97 -88.402 659.352 -72.9225 636.354 -69.4378C613.356 -65.9532 592.035 -75.5323 570.7 -87.4752C566.478 -89.8384 562.255 -92.295 558.02 -94.7589C540.901 -104.717 523.576 -114.795 505.295 -119.317C486.986 -123.857 466.921 -123.04 447.102 -122.233C442.205 -122.034 437.323 -121.835 432.487 -121.718C408.018 -121.125 384.686 -122.612 366.022 -136.416C347.357 -150.22 339.09 -172.105 332.485 -195.68C331.174 -200.36 329.928 -205.108 328.679 -209.869C323.651 -229.038 318.561 -248.436 308.893 -264.579Z" stroke="#15195F"/>
</g>
</g>
</g>
</svg>
