<svg width="24" height="24" viewBox="0 0 24 24" fill="none" xmlns="http://www.w3.org/2000/svg">
<g opacity="0.3">
<path d="M12.2274 3.7254C13.3432 3.80413 14.2239 4.73422 14.2239 5.87L14.2249 7.98707L14.2453 7.99197C18.7776 8.93096 22.1239 12.9471 22.1239 17.6854C22.1239 18.0297 22.1063 18.3728 22.0714 18.713C21.9884 19.5242 20.9558 19.8157 20.4609 19.1677L20.274 18.9312C18.8147 17.1447 16.737 15.9729 14.4384 15.6659L14.2249 15.6401L14.2239 18.1344C14.2239 18.615 14.0627 19.082 13.766 19.4604C13.0335 20.395 11.6821 20.5588 10.7476 19.8263L2.9239 13.6942C2.78765 13.5875 2.66481 13.4646 2.55802 13.3284C1.82553 12.3938 1.98934 11.0424 2.9239 10.3099L10.7476 4.17783C11.126 3.8812 11.593 3.72 12.0739 3.72L12.2274 3.7254ZM12.0739 5.52C11.9956 5.52 11.9196 5.54624 11.858 5.59453L4.03428 11.7266C3.88215 11.8458 3.85548 12.0658 3.97472 12.218C3.99211 12.2402 4.0121 12.2602 4.03428 12.2775L11.858 18.4096C12.0101 18.5289 12.2301 18.5022 12.3493 18.3501C12.3976 18.2884 12.4239 18.2124 12.4239 18.1341L12.4249 14.6868C12.425 14.1841 12.837 13.7789 13.3397 13.7872L13.5728 13.791L13.915 13.8076C16.1891 13.9527 18.3118 14.7947 20.0336 16.1734L20.2079 16.3171L20.1841 16.1817C19.5413 12.7663 16.7491 10.0764 13.2157 9.64546C12.7642 9.5904 12.4248 9.20715 12.4247 8.75232L12.4239 5.87025C12.4239 5.6767 12.2672 5.52 12.0739 5.52Z" fill="#15195F"/>
</g>
</svg>
