<svg width="22" height="22" viewBox="0 0 22 22" fill="none" xmlns="http://www.w3.org/2000/svg">
<g opacity="0.5">
<path d="M11.0001 6.11912C8.30879 6.11912 6.11924 8.30866 6.11924 11C6.11924 13.6913 8.30879 15.8809 11.0001 15.8809C13.6915 15.8809 15.881 13.6913 15.881 11C15.881 8.30866 13.6915 6.11912 11.0001 6.11912ZM11.0001 14.4857C9.07827 14.4857 7.51446 12.9219 7.51446 11C7.51446 9.07815 9.07827 7.51434 11.0001 7.51434C12.922 7.51434 14.4858 9.07815 14.4858 11C14.4858 12.9219 12.922 14.4857 11.0001 14.4857Z" fill="#15195F" stroke="#15195F" stroke-width="0.2"/>
<path d="M20.5507 8.62507L20.5507 8.62506L19.0693 8.30302C18.9433 7.92607 18.7906 7.55779 18.6126 7.20169L19.4327 5.92606L19.4327 5.92604C19.6101 5.64996 19.5711 5.28751 19.3391 5.05557L16.9444 2.66086C16.7125 2.42892 16.35 2.38993 16.074 2.56733L16.0739 2.56734L14.7983 3.38742C14.4422 3.20943 14.0739 3.05669 13.697 2.93071L13.3749 1.44935C13.3053 1.12868 13.0213 0.9 12.6933 0.9H9.30673C8.97866 0.9 8.69472 1.12868 8.62506 1.44934C8.62506 1.44934 8.62506 1.44935 8.62506 1.44935L8.30302 2.93071C7.92607 3.05669 7.5578 3.20943 7.20169 3.38742L5.92606 2.56734L5.92604 2.56733C5.64996 2.38993 5.28751 2.42892 5.05557 2.66086L2.66086 5.05557C2.42892 5.28751 2.38993 5.64996 2.56733 5.92604L2.56734 5.92606L3.38742 7.20169C3.20943 7.5578 3.05669 7.92607 2.93071 8.30302L1.44934 8.62506L1.4493 8.62507C1.12872 8.69488 0.9 8.97861 0.9 9.30673V12.6933C0.9 13.0214 1.12872 13.3051 1.4493 13.3749L1.44934 13.3749L2.93071 13.697C3.05669 14.0739 3.20943 14.4422 3.38742 14.7983L2.56734 16.0739L2.56733 16.074C2.38993 16.35 2.42892 16.7125 2.66086 16.9444L5.05557 19.3391C5.28751 19.5711 5.64996 19.6101 5.92604 19.4327L5.92606 19.4327L7.20169 18.6126C7.55779 18.7906 7.92607 18.9433 8.30302 19.0693L8.62506 20.5506C8.62506 20.5507 8.62506 20.5507 8.62506 20.5507C8.69472 20.8713 8.97866 21.1 9.30673 21.1H12.6933C13.0213 21.1 13.3053 20.8713 13.3749 20.5506L13.697 19.0693C14.0739 18.9433 14.4422 18.7906 14.7983 18.6126L16.0739 19.4327L16.074 19.4327C16.35 19.61 16.7125 19.5713 16.9444 19.3391C16.9444 19.3391 16.9444 19.3391 16.9445 19.3391L19.3391 16.9444C19.5711 16.7125 19.6101 16.35 19.4327 16.074L19.4327 16.0739L18.6126 14.7983C18.7906 14.4422 18.9433 14.0739 19.0693 13.697L20.5507 13.3749L20.5507 13.3749C20.8713 13.3051 21.1 13.0214 21.1 12.6933V9.30673C21.1 8.97861 20.8713 8.69488 20.5507 8.62507ZM18.3741 12.4202L18.374 12.4202C18.1214 12.4753 17.9197 12.6655 17.8502 12.9145L17.8502 12.9145C17.6975 13.4623 17.4779 13.9921 17.1974 14.4891C17.0702 14.7143 17.0781 14.9915 17.2181 15.2092C17.2181 15.2092 17.2181 15.2092 17.2181 15.2092L17.955 16.3554L16.3555 17.955L15.2092 17.2181C15.2092 17.2181 15.2092 17.2181 15.2092 17.2181C14.9915 17.0781 14.7144 17.0702 14.4892 17.1974C13.9921 17.4779 13.4623 17.6975 12.9145 17.8502L12.9145 17.8502C12.6655 17.9197 12.4753 18.1214 12.4202 18.374L12.4202 18.3741L12.131 19.7048H9.86905L9.57977 18.3741L9.57977 18.374C9.52474 18.1214 9.33454 17.9197 9.08549 17.8502L9.08548 17.8502C8.53771 17.6975 8.00793 17.4779 7.51094 17.1974C7.28561 17.0702 7.00847 17.0782 6.79083 17.2181L6.7908 17.2181L5.64461 17.955L4.04518 16.3554L4.78192 15.2092C4.78192 15.2092 4.78193 15.2092 4.78194 15.2092C4.92192 14.9915 4.92994 14.7144 4.80275 14.4891C4.52229 13.9921 4.30261 13.4623 4.14976 12.9145C4.08029 12.6655 3.87884 12.4753 3.62611 12.4202L3.62607 12.4202L2.29522 12.1309V9.86905L3.62592 9.57977L3.62595 9.57977C3.87865 9.52474 4.08028 9.33454 4.14976 9.08549L4.14976 9.08548C4.30246 8.53771 4.52213 8.00793 4.8026 7.51094C4.92976 7.28565 4.92195 7.00848 4.78192 6.79078L4.04503 5.6446L5.64446 4.04503L6.79078 4.78192C7.00846 4.92193 7.28562 4.92977 7.51078 4.80261C8.00793 4.52213 8.53771 4.30246 9.08548 4.14976L9.08549 4.14976C9.33454 4.08028 9.52474 3.87865 9.57977 3.62595L9.57977 3.62592L9.86905 2.29522H12.131L12.4202 3.62592L12.4202 3.62595C12.4753 3.87865 12.6655 4.08028 12.9145 4.14976L12.9145 4.14976C13.4623 4.30246 13.9921 4.52213 14.4891 4.8026C14.7144 4.92979 14.9915 4.92176 15.2092 4.78195L15.2092 4.78193L16.3554 4.04503L17.9548 5.64461L17.2181 6.79078C17.0781 7.00844 17.0701 7.28561 17.1972 7.51095L17.1973 7.51096C17.4779 8.00793 17.6974 8.5377 17.8502 9.0855C17.9197 9.3345 18.1212 9.52473 18.3739 9.57977L18.3739 9.57977L19.7048 9.86905V12.131L18.3741 12.4202Z" fill="#15195F" stroke="#15195F" stroke-width="0.2"/>
</g>
</svg>
